<svg width="24" height="19" viewBox="0 0 24 19" fill="none" xmlns="http://www.w3.org/2000/svg">
<path d="M23.2507 9.62878C23.2497 8.63534 22.9674 7.66249 22.4365 6.82281C21.9056 5.98314 21.1478 5.31097 20.2507 4.8841V4.75378C20.2498 3.78743 19.9379 2.84702 19.3611 2.0717C18.7843 1.29639 17.9732 0.727358 17.0478 0.448809C16.1225 0.17026 15.132 0.19699 14.2231 0.525044C13.3141 0.853098 12.5349 1.46505 12.0007 2.27035C11.4665 1.46505 10.6873 0.853098 9.77834 0.525044C8.86937 0.19699 7.87894 0.17026 6.95359 0.448809C6.02825 0.727358 5.21716 1.29639 4.64033 2.0717C4.06349 2.84702 3.75157 3.78743 3.7507 4.75378V4.8841C2.85289 5.3098 2.09432 5.98155 1.56315 6.82127C1.03197 7.661 0.75 8.63422 0.75 9.62785C0.75 10.6215 1.03197 11.5947 1.56315 12.4344C2.09432 13.2741 2.85289 13.9459 3.7507 14.3716V14.5038C3.75157 15.4701 4.06349 16.4106 4.64033 17.1859C5.21716 17.9612 6.02825 18.5302 6.95359 18.8088C7.87894 19.0873 8.86937 19.0606 9.77834 18.7325C10.6873 18.4045 11.4665 17.7925 12.0007 16.9872C12.5349 17.7925 13.3141 18.4045 14.2231 18.7325C15.132 19.0606 16.1225 19.0873 17.0478 18.8088C17.9732 18.5302 18.7843 17.9612 19.3611 17.1859C19.9379 16.4106 20.2498 15.4701 20.2507 14.5038V14.3716C21.1476 13.945 21.9054 13.2732 22.4363 12.4339C22.9672 11.5945 23.2496 10.622 23.2507 9.62878ZM8.2507 17.5038C7.51097 17.5037 6.79735 17.2303 6.24691 16.7361C5.69648 16.2419 5.34804 15.5617 5.26852 14.8263C5.51105 14.8609 5.75571 14.8784 6.0007 14.8788H6.7507C6.94962 14.8788 7.14038 14.7998 7.28103 14.6591C7.42169 14.5185 7.5007 14.3277 7.5007 14.1288C7.5007 13.9299 7.42169 13.7391 7.28103 13.5985C7.14038 13.4578 6.94962 13.3788 6.7507 13.3788H6.0007C5.11529 13.3798 4.25807 13.0675 3.58081 12.4972C2.90355 11.9269 2.44993 11.1353 2.30028 10.2626C2.15062 9.38995 2.31458 8.49247 2.76312 7.72908C3.21166 6.96569 3.91585 6.38563 4.75102 6.0916C4.89715 6.03986 5.02365 5.94411 5.11314 5.81753C5.20262 5.69094 5.25068 5.53974 5.2507 5.38472V4.75378C5.2507 3.95814 5.56677 3.19507 6.12938 2.63246C6.69199 2.06985 7.45505 1.75378 8.2507 1.75378C9.04635 1.75378 9.80941 2.06985 10.372 2.63246C10.9346 3.19507 11.2507 3.95814 11.2507 4.75378V11.1532C10.4271 10.4124 9.35839 10.003 8.2507 10.0038C8.05179 10.0038 7.86103 10.0828 7.72037 10.2235C7.57972 10.3641 7.5007 10.5549 7.5007 10.7538C7.5007 10.9527 7.57972 11.1435 7.72037 11.2841C7.86103 11.4248 8.05179 11.5038 8.2507 11.5038C9.04635 11.5038 9.80941 11.8199 10.372 12.3825C10.9346 12.9451 11.2507 13.7081 11.2507 14.5038C11.2507 15.2994 10.9346 16.0625 10.372 16.6251C9.80941 17.1877 9.04635 17.5038 8.2507 17.5038ZM18.0007 13.3788H17.2507C17.0518 13.3788 16.861 13.4578 16.7204 13.5985C16.5797 13.7391 16.5007 13.9299 16.5007 14.1288C16.5007 14.3277 16.5797 14.5185 16.7204 14.6591C16.861 14.7998 17.0518 14.8788 17.2507 14.8788H18.0007C18.2457 14.8784 18.4904 14.8609 18.7329 14.8263C18.6706 15.4025 18.4427 15.9484 18.0767 16.3979C17.7108 16.8474 17.2225 17.1812 16.6708 17.3591C16.1192 17.5369 15.5278 17.5512 14.9683 17.4001C14.4087 17.249 13.9049 16.939 13.5177 16.5077C13.1305 16.0763 12.8766 15.5421 12.7866 14.9695C12.6967 14.3969 12.7745 13.8105 13.0107 13.2812C13.2469 12.7519 13.6314 12.3024 14.1176 11.987C14.6039 11.6715 15.1711 11.5037 15.7507 11.5038C15.9496 11.5038 16.1404 11.4248 16.281 11.2841C16.4217 11.1435 16.5007 10.9527 16.5007 10.7538C16.5007 10.5549 16.4217 10.3641 16.281 10.2235C16.1404 10.0828 15.9496 10.0038 15.7507 10.0038C14.643 10.003 13.5743 10.4124 12.7507 11.1532V4.75378C12.7507 3.95814 13.0668 3.19507 13.6294 2.63246C14.192 2.06985 14.9551 1.75378 15.7507 1.75378C16.5464 1.75378 17.3094 2.06985 17.872 2.63246C18.4346 3.19507 18.7507 3.95814 18.7507 4.75378V5.38472C18.7507 5.53974 18.7988 5.69094 18.8883 5.81753C18.9778 5.94411 19.1043 6.03986 19.2504 6.0916C20.0856 6.38563 20.7897 6.96569 21.2383 7.72908C21.6868 8.49247 21.8508 9.38995 21.7011 10.2626C21.5515 11.1353 21.0979 11.9269 20.4206 12.4972C19.7433 13.0675 18.8861 13.3798 18.0007 13.3788ZM19.5007 8.50378C19.5007 8.7027 19.4217 8.89346 19.281 9.03411C19.1404 9.17477 18.9496 9.25378 18.7507 9.25378H18.3757C17.4806 9.25378 16.6222 8.8982 15.9892 8.26527C15.3563 7.63233 15.0007 6.77389 15.0007 5.87878V5.50378C15.0007 5.30487 15.0797 5.11411 15.2204 4.97345C15.361 4.8328 15.5518 4.75378 15.7507 4.75378C15.9496 4.75378 16.1404 4.8328 16.281 4.97345C16.4217 5.11411 16.5007 5.30487 16.5007 5.50378V5.87878C16.5007 6.37607 16.6982 6.85298 17.0499 7.20461C17.4015 7.55624 17.8784 7.75378 18.3757 7.75378H18.7507C18.9496 7.75378 19.1404 7.8328 19.281 7.97345C19.4217 8.11411 19.5007 8.30487 19.5007 8.50378ZM5.6257 9.25378H5.2507C5.05179 9.25378 4.86103 9.17477 4.72037 9.03411C4.57972 8.89346 4.5007 8.7027 4.5007 8.50378C4.5007 8.30487 4.57972 8.11411 4.72037 7.97345C4.86103 7.8328 5.05179 7.75378 5.2507 7.75378H5.6257C6.12298 7.75378 6.5999 7.55624 6.95153 7.20461C7.30316 6.85298 7.5007 6.37607 7.5007 5.87878V5.50378C7.5007 5.30487 7.57972 5.11411 7.72037 4.97345C7.86103 4.8328 8.05179 4.75378 8.2507 4.75378C8.44962 4.75378 8.64038 4.8328 8.78103 4.97345C8.92169 5.11411 9.0007 5.30487 9.0007 5.50378V5.87878C9.0007 6.77389 8.64512 7.63233 8.01219 8.26527C7.37925 8.8982 6.52081 9.25378 5.6257 9.25378Z" fill="#4B5565"/>
</svg>
